<svg width="4314" height="1080" viewBox="0 0 4314 1080" fill="none" xmlns="http://www.w3.org/2000/svg">
<path d="M342 843H0V316H711V606H342V843ZM1080 290H0V0H1080V290Z" fill="white"/>
<path d="M342 1080H0V869H342V1080ZM711 1080H369V632H711V1080ZM1080 1080H738V316H1080V1080Z" fill="white"/>
<path d="M1287.65 802V278.344H1623.12V357.864H1382.51V500.029H1600.1V579.549H1382.51V802H1287.65ZM1676.65 802V409.258H1769.21V802H1676.65ZM1723.18 353.517C1708.52 353.517 1695.91 348.659 1685.34 338.943C1674.77 329.056 1669.49 317.209 1669.49 303.402C1669.49 289.424 1674.77 277.577 1685.34 267.861C1695.91 257.974 1708.52 253.031 1723.18 253.031C1738.01 253.031 1750.63 257.974 1761.03 267.861C1771.59 277.577 1776.88 289.424 1776.88 303.402C1776.88 317.209 1771.59 329.056 1761.03 338.943C1750.63 348.659 1738.01 353.517 1723.18 353.517ZM1928.15 571.878V802H1835.59V409.258H1924.06V475.994H1928.66C1937.69 454.004 1952.1 436.532 1971.87 423.577C1991.82 410.622 2016.45 404.144 2045.77 404.144C2072.87 404.144 2096.48 409.94 2116.59 421.531C2136.88 433.123 2152.56 449.913 2163.64 471.903C2174.89 493.892 2180.43 520.569 2180.26 551.934V802H2087.7V566.253C2087.7 540.002 2080.88 519.461 2067.24 504.631C2053.78 489.801 2035.11 482.386 2011.25 482.386C1995.05 482.386 1980.65 485.966 1968.04 493.125C1955.59 500.114 1945.79 510.256 1938.63 523.552C1931.64 536.848 1928.15 552.957 1928.15 571.878ZM2358.57 809.926C2333.68 809.926 2311.27 805.494 2291.32 796.63C2271.55 787.596 2255.87 774.3 2244.28 756.743C2232.85 739.185 2227.14 717.537 2227.14 691.797C2227.14 669.637 2231.23 651.313 2239.42 636.823C2247.6 622.334 2258.76 610.743 2272.91 602.049C2287.06 593.356 2303 586.793 2320.73 582.361C2338.63 577.759 2357.12 574.435 2376.21 572.389C2399.22 570.003 2417.89 567.872 2432.21 565.997C2446.53 563.951 2456.93 560.883 2463.4 556.792C2470.05 552.531 2473.37 545.968 2473.37 537.104V535.57C2473.37 516.308 2467.66 501.392 2456.24 490.824C2444.82 480.255 2428.37 474.971 2406.89 474.971C2384.22 474.971 2366.24 479.914 2352.94 489.801C2339.82 499.688 2330.95 511.364 2326.35 524.831L2239.93 512.557C2246.75 488.693 2258 468.749 2273.68 452.726C2289.36 436.532 2308.54 424.429 2331.21 416.418C2353.88 408.235 2378.94 404.144 2406.38 404.144C2425.3 404.144 2444.14 406.36 2462.89 410.792C2481.64 415.224 2498.77 422.554 2514.29 432.782C2529.8 442.839 2542.24 456.561 2551.62 473.948C2561.16 491.335 2565.93 513.069 2565.93 539.149V802H2476.95V748.049H2473.89C2468.26 758.959 2460.33 769.186 2450.11 778.732C2440.05 788.107 2427.35 795.693 2412.01 801.489C2396.84 807.114 2379.02 809.926 2358.57 809.926ZM2382.6 741.913C2401.18 741.913 2417.29 738.248 2430.93 730.918C2444.57 723.418 2455.05 713.531 2462.38 701.258C2469.88 688.984 2473.63 675.603 2473.63 661.114V614.834C2470.73 617.22 2465.79 619.436 2458.8 621.482C2451.98 623.527 2444.31 625.317 2435.79 626.851C2427.26 628.386 2418.83 629.749 2410.47 630.943C2402.12 632.136 2394.88 633.159 2388.74 634.011C2374.93 635.886 2362.57 638.954 2351.67 643.216C2340.76 647.477 2332.15 653.443 2325.84 661.114C2319.53 668.614 2316.38 678.331 2316.38 690.263C2316.38 707.309 2322.6 720.179 2335.05 728.872C2347.49 737.566 2363.34 741.913 2382.6 741.913ZM2722.77 278.344V802H2630.21V278.344H2722.77ZM2846.68 949.278C2834.06 949.278 2822.39 948.255 2811.65 946.21C2801.08 944.335 2792.64 942.119 2786.33 939.562L2807.81 867.457C2821.28 871.378 2833.29 873.253 2843.86 873.082C2854.43 872.912 2863.72 869.588 2871.73 863.11C2879.92 856.803 2886.82 846.235 2892.44 831.404L2900.37 810.182L2757.95 409.258H2856.14L2946.65 705.86H2950.74L3041.51 409.258H3139.95L2982.7 849.559C2975.37 870.355 2965.66 888.168 2953.56 902.998C2941.45 917.999 2926.62 929.419 2909.06 937.261C2891.68 945.272 2870.88 949.278 2846.68 949.278ZM3371.32 409.258V480.852H3145.54V409.258H3371.32ZM3201.28 315.164H3293.84V683.871C3293.84 696.314 3295.72 705.86 3299.47 712.508C3303.39 718.986 3308.5 723.418 3314.81 725.804C3321.12 728.19 3328.11 729.384 3335.78 729.384C3341.57 729.384 3346.86 728.958 3351.63 728.105C3356.57 727.253 3360.32 726.486 3362.88 725.804L3378.48 798.165C3373.53 799.869 3366.46 801.744 3357.26 803.79C3348.22 805.835 3337.14 807.029 3324.02 807.37C3300.83 808.051 3279.95 804.557 3261.37 796.886C3242.79 789.045 3228.05 776.942 3217.14 760.578C3206.4 744.214 3201.11 723.758 3201.28 699.212V315.164ZM3419.93 802V409.258H3512.49V802H3419.93ZM3466.46 353.517C3451.8 353.517 3439.19 348.659 3428.62 338.943C3418.05 329.056 3412.77 317.209 3412.77 303.402C3412.77 289.424 3418.05 277.577 3428.62 267.861C3439.19 257.974 3451.8 253.031 3466.46 253.031C3481.29 253.031 3493.91 257.974 3504.31 267.861C3514.88 277.577 3520.16 289.424 3520.16 303.402C3520.16 317.209 3514.88 329.056 3504.31 338.943C3493.91 348.659 3481.29 353.517 3466.46 353.517ZM3750.18 809.671C3710.98 809.671 3677.31 801.062 3649.18 783.846C3621.23 766.629 3599.66 742.85 3584.49 712.508C3569.49 681.996 3561.99 646.881 3561.99 607.163C3561.99 567.275 3569.66 532.075 3585.01 501.563C3600.35 470.88 3622 447.015 3649.95 429.969C3678.08 412.753 3711.32 404.144 3749.67 404.144C3781.55 404.144 3809.76 410.025 3834.3 421.787C3859.02 433.378 3878.71 449.828 3893.37 471.135C3908.03 492.273 3916.38 516.989 3918.43 545.286H3829.96C3826.38 526.365 3817.85 510.597 3804.39 497.983C3791.09 485.198 3773.28 478.806 3750.95 478.806C3732.03 478.806 3715.41 483.92 3701.09 494.148C3686.77 504.205 3675.61 518.694 3667.59 537.615C3659.75 556.536 3655.83 579.208 3655.83 605.629C3655.83 632.391 3659.75 655.404 3667.59 674.666C3675.43 693.757 3686.43 708.502 3700.58 718.9C3714.9 729.128 3731.69 734.242 3750.95 734.242C3764.59 734.242 3776.77 731.685 3787.51 726.571C3798.42 721.287 3807.54 713.701 3814.87 703.815C3822.2 693.928 3827.23 681.91 3829.96 667.762H3918.43C3916.21 695.547 3908.03 720.179 3893.88 741.657C3879.73 762.964 3860.47 779.67 3836.09 791.772C3811.72 803.705 3783.08 809.671 3750.18 809.671ZM4276.04 513.069L4191.66 522.274C4189.27 513.751 4185.1 505.739 4179.13 498.239C4173.34 490.738 4165.5 484.687 4155.61 480.085C4145.72 475.482 4133.62 473.181 4119.3 473.181C4100.04 473.181 4083.84 477.357 4070.72 485.71C4057.76 494.062 4051.37 504.887 4051.54 518.183C4051.37 529.604 4055.55 538.894 4064.07 546.053C4072.76 553.212 4087.08 559.093 4107.03 563.696L4174.02 578.014C4211.18 586.026 4238.79 598.725 4256.86 616.112C4275.1 633.499 4284.31 656.256 4284.48 684.382C4284.31 709.099 4277.06 730.918 4262.74 749.839C4248.59 768.59 4228.91 783.249 4203.68 793.818C4178.45 804.386 4149.47 809.671 4116.74 809.671C4068.67 809.671 4029.98 799.614 4000.66 779.499C3971.34 759.214 3953.87 731.003 3948.24 694.865L4038.5 686.172C4042.59 703.9 4051.29 717.281 4064.58 726.315C4077.88 735.35 4095.18 739.867 4116.49 739.867C4138.48 739.867 4156.12 735.35 4169.42 726.315C4182.88 717.281 4189.62 706.116 4189.62 692.82C4189.62 681.569 4185.27 672.279 4176.58 664.949C4168.05 657.62 4154.76 651.994 4136.69 648.074L4069.7 634.011C4032.02 626.17 4004.15 612.959 3986.09 594.379C3968.02 575.628 3959.07 551.934 3959.24 523.296C3959.07 499.091 3965.63 478.124 3978.93 460.396C3992.39 442.498 4011.06 428.691 4034.92 418.974C4058.96 409.088 4086.66 404.144 4118.02 404.144C4164.05 404.144 4200.27 413.946 4226.69 433.549C4253.28 453.152 4269.73 479.659 4276.04 513.069Z" fill="white"/>
</svg>
