<svg width="1080" height="1080" viewBox="0 0 1080 1080" fill="none" xmlns="http://www.w3.org/2000/svg">
<g clip-path="url(#clip0_3_2)">
<path d="M1188 -108H-108V1188H1188V-108Z" fill="white"/>
<path d="M1188 -108H-108V1188H1188V-108Z" fill="white"/>
<mask id="mask0_3_2" style="mask-type:luminance" maskUnits="userSpaceOnUse" x="0" y="0" width="1080" height="1080">
<path d="M1080 0H0V1080H1080V0Z" fill="white"/>
</mask>
<g mask="url(#mask0_3_2)">
<mask id="mask1_3_2" style="mask-type:luminance" maskUnits="userSpaceOnUse" x="378" y="594" width="324" height="486">
<path d="M378 594H702V1079.87H378V594Z" fill="white"/>
</mask>
<g mask="url(#mask1_3_2)">
<mask id="mask2_3_2" style="mask-type:luminance" maskUnits="userSpaceOnUse" x="377" y="593" width="326" height="487">
<path d="M702.667 593.333H377.333V1080H702.667V593.333Z" fill="white"/>
</mask>
<g mask="url(#mask2_3_2)">
<mask id="mask3_3_2" style="mask-type:luminance" maskUnits="userSpaceOnUse" x="378" y="594" width="324" height="486">
<path d="M378 594H702V1079.87H378V594Z" fill="white"/>
</mask>
<g mask="url(#mask3_3_2)">
<path d="M378 594H702V1080H378V594Z" fill="#2F318B"/>
</g>
</g>
</g>
<mask id="mask4_3_2" style="mask-type:luminance" maskUnits="userSpaceOnUse" x="0" y="864" width="324" height="216">
<path d="M-1.60933e-05 864H324V1079.87H-1.60933e-05V864Z" fill="white"/>
</mask>
<g mask="url(#mask4_3_2)">
<mask id="mask5_3_2" style="mask-type:luminance" maskUnits="userSpaceOnUse" x="0" y="864" width="324" height="216">
<path d="M324 864H-1.60933e-05V1080H324V864Z" fill="white"/>
</mask>
<g mask="url(#mask5_3_2)">
<mask id="mask6_3_2" style="mask-type:luminance" maskUnits="userSpaceOnUse" x="0" y="864" width="324" height="216">
<path d="M-1.60933e-05 864H324V1079.87H-1.60933e-05V864Z" fill="white"/>
</mask>
<g mask="url(#mask6_3_2)">
<path d="M-1.60933e-05 864H323.802V1079.87H-1.60933e-05V864Z" fill="#2F318B"/>
</g>
</g>
</g>
<mask id="mask7_3_2" style="mask-type:luminance" maskUnits="userSpaceOnUse" x="0" y="324" width="702" height="270">
<path d="M-1.60933e-05 324H702V594H-1.60933e-05V324Z" fill="white"/>
</mask>
<g mask="url(#mask7_3_2)">
<mask id="mask8_3_2" style="mask-type:luminance" maskUnits="userSpaceOnUse" x="0" y="324" width="703" height="271">
<path d="M702.667 324H-1.60933e-05V594.667H702.667V324Z" fill="white"/>
</mask>
<g mask="url(#mask8_3_2)">
<mask id="mask9_3_2" style="mask-type:luminance" maskUnits="userSpaceOnUse" x="0" y="324" width="702" height="270">
<path d="M-1.60933e-05 324H702V594H-1.60933e-05V324Z" fill="white"/>
</mask>
<g mask="url(#mask9_3_2)">
<path d="M-1.60933e-05 324H702.422V594H-1.60933e-05V324Z" fill="#453FC5"/>
</g>
</g>
</g>
<mask id="mask10_3_2" style="mask-type:luminance" maskUnits="userSpaceOnUse" x="0" y="0" width="1080" height="270">
<path d="M0 0H1080V270H0V0Z" fill="white"/>
</mask>
<g mask="url(#mask10_3_2)">
<mask id="mask11_3_2" style="mask-type:luminance" maskUnits="userSpaceOnUse" x="0" y="0" width="1080" height="271">
<path d="M1080 0H0V270.667H1080V0Z" fill="white"/>
</mask>
<g mask="url(#mask11_3_2)">
<mask id="mask12_3_2" style="mask-type:luminance" maskUnits="userSpaceOnUse" x="0" y="0" width="1080" height="270">
<path d="M0 0H1080V270H0V0Z" fill="white"/>
</mask>
<g mask="url(#mask12_3_2)">
<path d="M0 0H1080V270H0V0Z" fill="#453FC5"/>
</g>
</g>
</g>
<mask id="mask13_3_2" style="mask-type:luminance" maskUnits="userSpaceOnUse" x="756" y="270" width="324" height="810">
<path d="M756 270H1080V1080H756V270Z" fill="white"/>
</mask>
<g mask="url(#mask13_3_2)">
<mask id="mask14_3_2" style="mask-type:luminance" maskUnits="userSpaceOnUse" x="756" y="269" width="324" height="811">
<path d="M1080 269.333H756V1080H1080V269.333Z" fill="white"/>
</mask>
<g mask="url(#mask14_3_2)">
<mask id="mask15_3_2" style="mask-type:luminance" maskUnits="userSpaceOnUse" x="756" y="270" width="324" height="810">
<path d="M756 270H1080V1080H756V270Z" fill="white"/>
</mask>
<g mask="url(#mask15_3_2)">
<path d="M756 270H1080V1080H756V270Z" fill="#2F318B"/>
</g>
</g>
</g>
<mask id="mask16_3_2" style="mask-type:luminance" maskUnits="userSpaceOnUse" x="0" y="648" width="324" height="270">
<path d="M-1.60933e-05 648H324V918H-1.60933e-05V648Z" fill="white"/>
</mask>
<g mask="url(#mask16_3_2)">
<mask id="mask17_3_2" style="mask-type:luminance" maskUnits="userSpaceOnUse" x="0" y="648" width="324" height="271">
<path d="M324 648H-1.60933e-05V918.667H324V648Z" fill="white"/>
</mask>
<g mask="url(#mask17_3_2)">
<mask id="mask18_3_2" style="mask-type:luminance" maskUnits="userSpaceOnUse" x="0" y="648" width="324" height="270">
<path d="M-1.60933e-05 648H324V918H-1.60933e-05V648Z" fill="white"/>
</mask>
<g mask="url(#mask18_3_2)">
<path d="M-1.60933e-05 648H323.792V918H-1.60933e-05V648Z" fill="#453FC5"/>
</g>
</g>
</g>
</g>
</g>
<defs>
<clipPath id="clip0_3_2">
<rect width="1080" height="1080" fill="white"/>
</clipPath>
</defs>
</svg>
